<svg width="36" height="36" viewBox="0 0 36 36" fill="none" xmlns="http://www.w3.org/2000/svg">
<path d="M33.5301 18.76L26.6001 15.57V6.43002C26.5969 6.23827 26.5387 6.05147 26.4323 5.8919C26.3259 5.73233 26.1759 5.60671 26.0001 5.53003L18.5001 2.08002C18.3685 2.0191 18.2252 1.98755 18.0801 1.98755C17.9351 1.98755 17.7917 2.0191 17.6601 2.08002L10.1601 5.53003C9.98652 5.61036 9.83962 5.73878 9.73682 5.90008C9.63402 6.06137 9.57963 6.24876 9.5801 6.44002V15.58L2.6801 18.76C2.50652 18.8404 2.35962 18.9688 2.25682 19.1301C2.15402 19.2914 2.09963 19.4788 2.1001 19.67V29.45C2.09963 29.6413 2.15402 29.8287 2.25682 29.99C2.35962 30.1513 2.50652 30.2797 2.6801 30.36L10.1801 33.81C10.3117 33.8709 10.4551 33.9025 10.6001 33.9025C10.7452 33.9025 10.8885 33.8709 11.0201 33.81L18.1001 30.55L25.1801 33.81C25.3117 33.8709 25.4551 33.9025 25.6001 33.9025C25.7452 33.9025 25.8885 33.8709 26.0201 33.81L33.5201 30.36C33.6937 30.2797 33.8406 30.1513 33.9434 29.99C34.0462 29.8287 34.1006 29.6413 34.1001 29.45V19.67C34.1015 19.4798 34.0486 19.2932 33.9476 19.132C33.8466 18.9708 33.7018 18.8418 33.5301 18.76ZM25.6101 22L20.5001 19.67L25.6101 17.32L30.7201 19.67L25.6101 22ZM24.6101 15.56L18.1701 18.56V10.87C18.2906 10.8647 18.4092 10.8376 18.5201 10.79L24.6001 8.00002V15.58L24.6101 15.56ZM18.1001 4.08002L23.2101 6.43002L18.1001 8.78002L13.0001 6.43002L18.1001 4.08002ZM10.6001 17.31L15.7101 19.66L10.6001 22L5.4901 19.67L10.6001 17.31ZM17.1001 28.8L10.6001 31.8V24.11C10.7397 24.1017 10.8759 24.0642 11.0001 24L17.0801 21.2L17.1001 28.8ZM32.1001 28.8L25.6401 31.8V24.11C25.766 24.0965 25.8881 24.0592 26.0001 24L32.0801 21.2L32.1001 28.8Z" fill="black"/>
</svg>
