<svg width="28" height="28" viewBox="0 0 28 28" fill="none" xmlns="http://www.w3.org/2000/svg">
<path d="M9 0H0V9H2V2H9V0Z" fill="black"/>
<path d="M0 19V28H9V26H2V19H0Z" fill="black"/>
<path d="M28 9V0H19V2H26V9H28Z" fill="black"/>
<path d="M19 28H28V19H26V26H19V28Z" fill="black"/>
<path d="M23.49 8.13001L14.49 3.13001C14.338 3.04224 14.1656 2.99603 13.99 2.99603C13.8145 2.99603 13.6421 3.04224 13.49 3.13001L4.49005 8.13001C4.3393 8.21937 4.21469 8.34678 4.12869 8.49947C4.04269 8.65216 3.99833 8.82477 4.00005 9.00001V19C4.00035 19.1772 4.04774 19.3511 4.13735 19.504C4.22696 19.6569 4.35558 19.7832 4.51005 19.87L13.51 24.87C13.6621 24.9578 13.8345 25.004 14.01 25.004C14.1856 25.004 14.358 24.9578 14.51 24.87L23.51 19.87C23.6608 19.7806 23.7854 19.6532 23.8714 19.5005C23.9574 19.3479 24.0018 19.1752 24 19V9.00001C23.9997 8.82281 23.9524 8.64888 23.8627 8.49601C23.7731 8.34314 23.6445 8.21683 23.49 8.13001ZM14 5.14001L20.94 9.00001L14 12.86L7.06005 9.00001L14 5.14001ZM6.00005 10.7L13 14.59V22.3L6.00005 18.41V10.7ZM15 22.3V14.59L22 10.7V18.41L15 22.3Z" fill="black"/>
</svg>
