<svg width="133" height="36" viewBox="0 0 133 36" fill="none" xmlns="http://www.w3.org/2000/svg">
<path d="M2.82812 12.625V24H1.32031V12.625H2.82812ZM9.69531 12.625L4.96875 17.9297L2.3125 20.6875L2.0625 19.0781L4.0625 16.875L7.88281 12.625H9.69531ZM8.24219 24L4.03125 18.4531L4.92969 17.2578L10.0391 24H8.24219ZM12.4062 17.3516V24H10.9609V15.5469H12.3281L12.4062 17.3516ZM12.0625 19.4531L11.4609 19.4297C11.4661 18.8516 11.5521 18.3177 11.7188 17.8281C11.8854 17.3333 12.1198 16.9036 12.4219 16.5391C12.724 16.1745 13.0833 15.8932 13.5 15.6953C13.9219 15.4922 14.388 15.3906 14.8984 15.3906C15.3151 15.3906 15.6901 15.4479 16.0234 15.5625C16.3568 15.6719 16.6406 15.849 16.875 16.0938C17.1146 16.3385 17.2969 16.6562 17.4219 17.0469C17.5469 17.4323 17.6094 17.9036 17.6094 18.4609V24H16.1562V18.4453C16.1562 18.0026 16.0911 17.6484 15.9609 17.3828C15.8307 17.112 15.6406 16.9167 15.3906 16.7969C15.1406 16.6719 14.8333 16.6094 14.4688 16.6094C14.1094 16.6094 13.7812 16.6849 13.4844 16.8359C13.1927 16.987 12.9401 17.1953 12.7266 17.4609C12.5182 17.7266 12.3542 18.0312 12.2344 18.375C12.1198 18.7135 12.0625 19.0729 12.0625 19.4531ZM19.4219 19.8672V19.6875C19.4219 19.0781 19.5104 18.513 19.6875 17.9922C19.8646 17.4661 20.1198 17.0104 20.4531 16.625C20.7865 16.2344 21.1901 15.9323 21.6641 15.7188C22.138 15.5 22.6693 15.3906 23.2578 15.3906C23.8516 15.3906 24.3854 15.5 24.8594 15.7188C25.3385 15.9323 25.7448 16.2344 26.0781 16.625C26.4167 17.0104 26.6745 17.4661 26.8516 17.9922C27.0286 18.513 27.1172 19.0781 27.1172 19.6875V19.8672C27.1172 20.4766 27.0286 21.0417 26.8516 21.5625C26.6745 22.0833 26.4167 22.5391 26.0781 22.9297C25.7448 23.3151 25.3411 23.6172 24.8672 23.8359C24.3984 24.0495 23.8672 24.1562 23.2734 24.1562C22.6797 24.1562 22.1458 24.0495 21.6719 23.8359C21.1979 23.6172 20.7917 23.3151 20.4531 22.9297C20.1198 22.5391 19.8646 22.0833 19.6875 21.5625C19.5104 21.0417 19.4219 20.4766 19.4219 19.8672ZM20.8672 19.6875V19.8672C20.8672 20.2891 20.9167 20.6875 21.0156 21.0625C21.1146 21.4323 21.263 21.7604 21.4609 22.0469C21.6641 22.3333 21.9167 22.5599 22.2188 22.7266C22.5208 22.888 22.8724 22.9688 23.2734 22.9688C23.6693 22.9688 24.0156 22.888 24.3125 22.7266C24.6146 22.5599 24.8646 22.3333 25.0625 22.0469C25.2604 21.7604 25.4089 21.4323 25.5078 21.0625C25.612 20.6875 25.6641 20.2891 25.6641 19.8672V19.6875C25.6641 19.2708 25.612 18.8776 25.5078 18.5078C25.4089 18.1328 25.2578 17.8021 25.0547 17.5156C24.8568 17.224 24.6068 16.9948 24.3047 16.8281C24.0078 16.6615 23.6589 16.5781 23.2578 16.5781C22.862 16.5781 22.513 16.6615 22.2109 16.8281C21.9141 16.9948 21.6641 17.224 21.4609 17.5156C21.263 17.8021 21.1146 18.1328 21.0156 18.5078C20.9167 18.8776 20.8672 19.2708 20.8672 19.6875ZM31.0703 22.5L33.2422 15.5469H34.1953L34.0078 16.9297L31.7969 24H30.8672L31.0703 22.5ZM29.6094 15.5469L31.4609 22.5781L31.5938 24H30.6172L28.1641 15.5469H29.6094ZM36.2734 22.5234L38.0391 15.5469H39.4766L37.0234 24H36.0547L36.2734 22.5234ZM34.4062 15.5469L36.5312 22.3828L36.7734 24H35.8516L33.5781 16.9141L33.3906 15.5469H34.4062ZM46.3672 17.2266V24H44.9141V15.5469H46.2891L46.3672 17.2266ZM46.0703 19.4531L45.3984 19.4297C45.4036 18.8516 45.4792 18.3177 45.625 17.8281C45.7708 17.3333 45.987 16.9036 46.2734 16.5391C46.5599 16.1745 46.9167 15.8932 47.3438 15.6953C47.7708 15.4922 48.2656 15.3906 48.8281 15.3906C49.224 15.3906 49.5885 15.4479 49.9219 15.5625C50.2552 15.6719 50.5443 15.8464 50.7891 16.0859C51.0339 16.3255 51.224 16.6328 51.3594 17.0078C51.4948 17.3828 51.5625 17.8359 51.5625 18.3672V24H50.1172V18.4375C50.1172 17.9948 50.0417 17.6406 49.8906 17.375C49.7448 17.1094 49.5365 16.9167 49.2656 16.7969C48.9948 16.6719 48.6771 16.6094 48.3125 16.6094C47.8854 16.6094 47.5286 16.6849 47.2422 16.8359C46.9557 16.987 46.7266 17.1953 46.5547 17.4609C46.3828 17.7266 46.2578 18.0312 46.1797 18.375C46.1068 18.7135 46.0703 19.0729 46.0703 19.4531ZM51.5469 18.6562L50.5781 18.9531C50.5833 18.4896 50.6589 18.0443 50.8047 17.6172C50.9557 17.1901 51.1719 16.8099 51.4531 16.4766C51.7396 16.1432 52.0911 15.8802 52.5078 15.6875C52.9245 15.4896 53.401 15.3906 53.9375 15.3906C54.3906 15.3906 54.7917 15.4505 55.1406 15.5703C55.4948 15.6901 55.7917 15.875 56.0312 16.125C56.276 16.3698 56.4609 16.6849 56.5859 17.0703C56.7109 17.4557 56.7734 17.9141 56.7734 18.4453V24H55.3203V18.4297C55.3203 17.9557 55.2448 17.5885 55.0938 17.3281C54.9479 17.0625 54.7396 16.8776 54.4688 16.7734C54.2031 16.6641 53.8854 16.6094 53.5156 16.6094C53.1979 16.6094 52.9167 16.6641 52.6719 16.7734C52.4271 16.8828 52.2214 17.0339 52.0547 17.2266C51.888 17.4141 51.7604 17.6302 51.6719 17.875C51.5885 18.1198 51.5469 18.3802 51.5469 18.6562ZM58.5781 19.8672V19.6875C58.5781 19.0781 58.6667 18.513 58.8438 17.9922C59.0208 17.4661 59.276 17.0104 59.6094 16.625C59.9427 16.2344 60.3464 15.9323 60.8203 15.7188C61.2943 15.5 61.8255 15.3906 62.4141 15.3906C63.0078 15.3906 63.5417 15.5 64.0156 15.7188C64.4948 15.9323 64.901 16.2344 65.2344 16.625C65.5729 17.0104 65.8307 17.4661 66.0078 17.9922C66.1849 18.513 66.2734 19.0781 66.2734 19.6875V19.8672C66.2734 20.4766 66.1849 21.0417 66.0078 21.5625C65.8307 22.0833 65.5729 22.5391 65.2344 22.9297C64.901 23.3151 64.4974 23.6172 64.0234 23.8359C63.5547 24.0495 63.0234 24.1562 62.4297 24.1562C61.8359 24.1562 61.3021 24.0495 60.8281 23.8359C60.3542 23.6172 59.9479 23.3151 59.6094 22.9297C59.276 22.5391 59.0208 22.0833 58.8438 21.5625C58.6667 21.0417 58.5781 20.4766 58.5781 19.8672ZM60.0234 19.6875V19.8672C60.0234 20.2891 60.0729 20.6875 60.1719 21.0625C60.2708 21.4323 60.4193 21.7604 60.6172 22.0469C60.8203 22.3333 61.0729 22.5599 61.375 22.7266C61.6771 22.888 62.0286 22.9688 62.4297 22.9688C62.8255 22.9688 63.1719 22.888 63.4688 22.7266C63.7708 22.5599 64.0208 22.3333 64.2188 22.0469C64.4167 21.7604 64.5651 21.4323 64.6641 21.0625C64.7682 20.6875 64.8203 20.2891 64.8203 19.8672V19.6875C64.8203 19.2708 64.7682 18.8776 64.6641 18.5078C64.5651 18.1328 64.4141 17.8021 64.2109 17.5156C64.013 17.224 63.763 16.9948 63.4609 16.8281C63.1641 16.6615 62.8151 16.5781 62.4141 16.5781C62.0182 16.5781 61.6693 16.6615 61.3672 16.8281C61.0703 16.9948 60.8203 17.224 60.6172 17.5156C60.4193 17.8021 60.2708 18.1328 60.1719 18.5078C60.0729 18.8776 60.0234 19.2708 60.0234 19.6875ZM69.5312 16.875V24H68.0859V15.5469H69.4922L69.5312 16.875ZM72.1719 15.5L72.1641 16.8438C72.0443 16.8177 71.9297 16.8021 71.8203 16.7969C71.7161 16.7865 71.5964 16.7812 71.4609 16.7812C71.1276 16.7812 70.8333 16.8333 70.5781 16.9375C70.3229 17.0417 70.1068 17.1875 69.9297 17.375C69.7526 17.5625 69.612 17.7865 69.5078 18.0469C69.4089 18.3021 69.3438 18.5833 69.3125 18.8906L68.9062 19.125C68.9062 18.6146 68.9557 18.1354 69.0547 17.6875C69.1589 17.2396 69.3177 16.8438 69.5312 16.5C69.7448 16.151 70.0156 15.8802 70.3438 15.6875C70.6771 15.4896 71.0729 15.3906 71.5312 15.3906C71.6354 15.3906 71.7552 15.4036 71.8906 15.4297C72.026 15.4505 72.1198 15.474 72.1719 15.5ZM76.8594 24.1562C76.2708 24.1562 75.737 24.0573 75.2578 23.8594C74.7839 23.6562 74.375 23.3724 74.0312 23.0078C73.6927 22.6432 73.4323 22.2109 73.25 21.7109C73.0677 21.2109 72.9766 20.6641 72.9766 20.0703V19.7422C72.9766 19.0547 73.0781 18.4427 73.2812 17.9062C73.4844 17.3646 73.7604 16.9062 74.1094 16.5312C74.4583 16.1562 74.8542 15.8724 75.2969 15.6797C75.7396 15.487 76.1979 15.3906 76.6719 15.3906C77.276 15.3906 77.7969 15.4948 78.2344 15.7031C78.6771 15.9115 79.0391 16.2031 79.3203 16.5781C79.6016 16.9479 79.8099 17.3854 79.9453 17.8906C80.0807 18.3906 80.1484 18.9375 80.1484 19.5312V20.1797H73.8359V19H78.7031V18.8906C78.6823 18.5156 78.6042 18.151 78.4688 17.7969C78.3385 17.4427 78.1302 17.151 77.8438 16.9219C77.5573 16.6927 77.1667 16.5781 76.6719 16.5781C76.3438 16.5781 76.0417 16.6484 75.7656 16.7891C75.4896 16.9245 75.2526 17.1276 75.0547 17.3984C74.8568 17.6693 74.7031 18 74.5938 18.3906C74.4844 18.7812 74.4297 19.2318 74.4297 19.7422V20.0703C74.4297 20.4714 74.4844 20.849 74.5938 21.2031C74.7083 21.5521 74.8724 21.8594 75.0859 22.125C75.3047 22.3906 75.5677 22.599 75.875 22.75C76.1875 22.901 76.5417 22.9766 76.9375 22.9766C77.4479 22.9766 77.8802 22.8724 78.2344 22.6641C78.5885 22.4557 78.8984 22.1771 79.1641 21.8281L80.0391 22.5234C79.8568 22.7995 79.625 23.0625 79.3438 23.3125C79.0625 23.5625 78.7161 23.7656 78.3047 23.9219C77.8984 24.0781 77.4167 24.1562 76.8594 24.1562Z" fill="white"/>
<circle cx="115" cy="18" r="17.5" fill="url(#paint0_linear_1616_3)" stroke="url(#paint1_linear_1616_3)"/>
<path d="M123.425 19.4253C123.66 19.1904 123.66 18.8096 123.425 18.5747L119.598 14.7473C119.363 14.5125 118.982 14.5125 118.747 14.7473C118.512 14.9822 118.512 15.363 118.747 15.5979L122.149 19L118.747 22.4021C118.512 22.637 118.512 23.0178 118.747 23.2527C118.982 23.4875 119.363 23.4875 119.598 23.2527L123.425 19.4253ZM106 19.6014H123V18.3986H106V19.6014Z" fill="#F8F8F8"/>
<defs>
<linearGradient id="paint0_linear_1616_3" x1="89.5" y1="-202" x2="115" y2="40.5" gradientUnits="userSpaceOnUse">
<stop stop-color="#4A008F"/>
<stop offset="1" stop-color="#D9D9D9" stop-opacity="0"/>
</linearGradient>
<linearGradient id="paint1_linear_1616_3" x1="144.5" y1="21.5" x2="115" y2="36" gradientUnits="userSpaceOnUse">
<stop stop-color="white"/>
<stop offset="1" stop-opacity="0"/>
</linearGradient>
</defs>
</svg>
