<svg width="34" height="34" viewBox="0 0 34 34" fill="none" xmlns="http://www.w3.org/2000/svg">
<path d="M19.1251 5.66664C21.0126 5.66668 22.8737 6.11043 24.5581 6.96208C26.2426 7.81374 27.7032 9.04944 28.8222 10.5695C29.9412 12.0895 30.6872 13.8513 31 15.7127C31.3128 17.5742 31.1837 19.483 30.623 21.2853C30.0623 23.0876 29.0858 24.7329 27.7722 26.0884C26.4586 27.4438 24.8448 28.4715 23.061 29.0885C21.2772 29.7055 19.3733 29.8945 17.503 29.6403C15.6327 29.386 13.8483 28.6957 12.2939 27.625H2.4821C2.2129 27.6249 1.95377 27.5226 1.75706 27.3388C1.56035 27.1551 1.44074 26.9035 1.42239 26.6349C1.40405 26.3663 1.48833 26.1008 1.65821 25.892C1.82809 25.6831 2.07091 25.5466 2.3376 25.5099L2.4821 25.5L9.9451 25.5014C9.38815 24.8467 8.90278 24.1343 8.49726 23.3764L5.30835 23.375C5.03915 23.3749 4.78001 23.2726 4.58331 23.0888C4.3866 22.9051 4.26699 22.6535 4.24864 22.3849C4.2303 22.1163 4.31458 21.8508 4.48446 21.642C4.65434 21.4331 4.89716 21.2966 5.16385 21.2599L5.30835 21.25L7.61326 21.2514C7.26096 20.1034 7.08237 18.9091 7.08343 17.7083C7.08343 14.7361 8.1601 12.0161 9.94368 9.91664H3.89593C3.62673 9.91656 3.3676 9.8143 3.17089 9.63051C2.97419 9.44673 2.85458 9.19514 2.83623 8.92656C2.81788 8.65799 2.90216 8.39246 3.07204 8.18363C3.24193 7.97481 3.48474 7.83825 3.75143 7.80156L3.89593 7.79164H12.2925C14.3005 6.4041 16.6843 5.66271 19.1251 5.66664ZM19.1251 7.79164C16.495 7.79164 13.9727 8.83643 12.113 10.6962C10.2532 12.5559 9.20843 15.0782 9.20843 17.7083C9.20843 20.3384 10.2532 22.8607 12.113 24.7204C13.9727 26.5802 16.495 27.625 19.1251 27.625C21.7552 27.625 24.2775 26.5802 26.1372 24.7204C27.997 22.8607 29.0418 20.3384 29.0418 17.7083C29.0418 15.0782 27.997 12.5559 26.1372 10.6962C24.2775 8.83643 21.7552 7.79164 19.1251 7.79164ZM19.1293 9.91947C20.1528 9.91947 21.1663 10.1211 22.1119 10.5127C23.0575 10.9044 23.9167 11.4785 24.6404 12.2022C25.3641 12.9259 25.9382 13.7851 26.3299 14.7307C26.7215 15.6763 26.9231 16.6898 26.9231 17.7133C26.9231 18.7368 26.7215 19.7502 26.3299 20.6958C25.9382 21.6414 25.3641 22.5006 24.6404 23.2243C23.9167 23.948 23.0575 24.5221 22.1119 24.9138C21.1663 25.3055 20.1528 25.5071 19.1293 25.5071C17.0623 25.5071 15.0799 24.6859 13.6183 23.2243C12.1567 21.7627 11.3356 19.7803 11.3356 17.7133C11.3356 15.6462 12.1567 13.6638 13.6183 12.2022C15.0799 10.7406 17.0623 9.91947 19.1293 9.91947ZM20.7599 20.8476C20.2712 21.1026 19.7144 21.2471 19.1251 21.2471C18.5414 21.2471 17.9918 21.1055 17.5058 20.8561L15.9532 22.4088C16.8598 23.0222 17.9521 23.3821 19.1293 23.3821C20.3108 23.3821 21.4073 23.0208 22.3154 22.4031L20.7599 20.8476ZM13.4613 17.7126C13.4613 18.8969 13.8239 19.9976 14.4458 20.9071L15.9943 19.3616C15.724 18.8519 15.5829 18.2838 15.5834 17.7069C15.5834 17.1161 15.7293 16.5594 15.9858 16.0706L14.4402 14.5265C13.8002 15.4661 13.459 16.5771 13.4613 17.714V17.7126ZM23.8256 14.5364L22.2743 16.0876C22.5237 16.5721 22.6653 17.1232 22.6653 17.7069C22.6653 18.2976 22.5208 18.8544 22.2644 19.3431L23.8199 20.8986C24.4376 19.9906 24.7974 18.8941 24.7974 17.7126C24.7974 16.5367 24.439 15.4416 23.8256 14.5364ZM19.1251 16.2916C18.9339 16.2831 18.743 16.3134 18.5638 16.3806C18.3847 16.4479 18.221 16.5507 18.0827 16.683C17.9444 16.8153 17.8343 16.9742 17.7591 17.1502C17.6839 17.3261 17.6451 17.5155 17.6451 17.7069C17.6451 17.8983 17.6839 18.0877 17.7591 18.2636C17.8343 18.4396 17.9444 18.5985 18.0827 18.7308C18.221 18.863 18.3847 18.9659 18.5638 19.0332C18.743 19.1004 18.9339 19.1307 19.1251 19.1221C19.4895 19.1058 19.8336 18.9496 20.0856 18.686C20.3377 18.4223 20.4784 18.0716 20.4784 17.7069C20.4784 17.3421 20.3377 16.9914 20.0856 16.7278C19.8336 16.4642 19.4895 16.308 19.1251 16.2916ZM19.1293 12.0445C17.9478 12.0445 16.8513 12.4057 15.9418 13.0234L17.486 14.5676C17.9762 14.3126 18.5343 14.1666 19.1251 14.1666C19.7215 14.1666 20.2839 14.314 20.7769 14.5746L22.3239 13.0291C21.383 12.3857 20.2692 12.0425 19.1293 12.0445Z" fill="black"/>
</svg>
