<svg width="1152" height="553" viewBox="0 0 1152 553" fill="none" xmlns="http://www.w3.org/2000/svg">
<path opacity="0.21" d="M524.663 -1.19029H614.481C616.029 -0.450144 616.545 0.290006 617.062 1.03016C618.61 3.99076 620.159 6.95135 621.707 9.91195C626.353 19.1638 631.515 29.1558 635.128 38.7778C637.193 44.699 639.258 50.6202 641.323 56.1713C642.871 60.2421 643.904 63.9429 645.452 68.0137C649.582 80.2262 656.808 89.8481 668.165 98.3599C671.262 100.58 674.359 102.801 677.456 105.391C682.618 109.092 687.78 112.793 692.426 116.494C706.363 128.706 714.106 143.509 716.687 162.383L717.203 166.454C718.235 176.076 719.784 186.068 722.365 195.69C728.043 217.524 732.173 240.099 734.237 264.894C734.754 271.555 736.302 280.067 740.432 288.208C746.11 298.57 755.918 305.232 769.339 307.082C772.952 307.452 776.049 307.822 779.663 307.822C790.503 307.822 800.826 305.232 810.634 299.681C824.571 292.279 834.379 281.177 841.606 266.374C847.8 253.791 848.316 240.469 848.832 228.996C849.349 220.115 849.865 210.863 851.93 201.611C856.575 181.627 869.48 164.973 890.128 152.761C897.871 147.95 906.646 143.879 914.905 139.808L920.583 136.848C955.685 119.454 951.039 89.4781 947.425 77.6357C946.393 74.305 943.812 71.7145 941.231 69.1239C934.004 62.4626 923.681 60.6122 914.389 59.8721C907.162 59.1319 899.419 59.1319 894.257 59.1319C891.16 59.1319 888.579 59.1319 885.482 59.1319C882.385 59.1319 879.804 59.1319 876.707 59.1319C875.158 59.1319 873.61 59.1319 872.061 59.1319C863.802 59.1319 857.091 58.3918 850.381 57.2815C823.023 52.1005 799.278 40.9982 777.598 23.2346C770.887 17.6835 765.209 10.282 760.047 1.03016C759.015 -0.450144 759.015 -1.19029 759.531 -1.56037H801.859C803.407 -0.820219 804.44 0.290006 805.472 1.77031C812.183 11.0222 819.409 18.0536 827.668 23.2346C844.187 33.2267 863.802 38.0376 888.579 38.0376C892.709 38.0376 897.355 38.0376 902 37.6676C914.905 36.9274 928.326 36.1873 941.747 35.077C950.523 34.3369 959.298 33.5967 968.073 32.1164C975.816 30.6361 980.462 27.3055 983.559 21.7544C986.14 16.9434 987.688 11.3923 989.237 4.36083V3.25061C989.237 1.40023 989.753 -0.0800691 991.302 -1.19029H1031.05C1032.6 -0.450144 1033.63 0.660081 1034.66 1.77031C1040.86 8.06158 1047.57 12.1324 1055.31 14.7229C1062.54 16.9434 1070.28 18.4237 1077.51 19.904H1078.02C1080.6 20.274 1082.67 20.6441 1085.25 21.3843C1094.54 23.2346 1104.35 25.085 1113.64 28.0456C1127.06 32.4865 1135.32 37.2975 1140.48 44.3289C1149.77 56.1713 1152.87 69.494 1150.29 83.1868C1146.16 103.911 1132.74 118.714 1109.51 127.966C1089.89 135.737 1069.76 140.178 1053.76 143.509C1050.66 144.249 1047.57 144.619 1044.99 145.359C1034.66 147.21 1024.34 149.43 1014.53 152.761C996.98 158.312 986.14 168.304 982.526 182.367C980.462 189.028 980.462 196.06 980.462 202.721V206.422C980.462 212.713 982.01 219.374 984.591 227.146C992.334 247.5 1009.37 264.153 1036.73 277.476C1051.7 284.508 1067.18 290.059 1083.18 295.61C1086.8 297.09 1090.93 298.2 1094.54 299.681C1108.99 304.862 1123.96 310.783 1138.42 318.184C1145.13 321.515 1151.84 325.586 1155.97 331.137V400.341C1155.45 400.341 1154.42 399.601 1153.9 399.231C1153.39 398.861 1152.87 398.491 1152.35 398.491C1141 391.089 1131.71 385.168 1123.45 379.617C1107.45 368.514 1093.51 355.932 1076.99 341.129C1062.54 328.176 1050.66 318.554 1038.28 310.043C1035.18 308.192 1032.08 305.972 1029.5 304.121C1018.66 297.09 1007.82 289.318 997.496 281.547C987.172 273.405 977.881 263.783 970.138 252.311C959.814 237.508 955.168 221.225 951.555 207.162L950.006 205.311C948.458 197.91 946.393 190.508 942.78 183.477C939.166 177.186 932.456 173.485 924.197 173.485C922.648 173.485 920.583 173.485 919.035 173.855C914.905 174.595 910.776 175.705 906.13 177.556C892.193 183.107 885.998 192.729 881.869 201.611C876.707 211.973 875.675 222.705 874.126 233.437L873.61 238.248C871.545 258.232 863.286 277.106 849.865 293.759C839.541 306.342 826.636 316.334 811.667 322.995C798.245 328.917 783.276 331.877 766.242 331.877C758.499 331.877 751.788 331.507 743.529 330.397C728.043 328.546 717.719 322.255 713.074 311.523C710.493 305.232 709.976 298.57 709.46 293.019C708.944 287.468 708.944 281.917 708.428 276.366C708.428 270.075 707.912 263.783 707.395 257.492C706.363 244.169 702.75 231.217 696.555 218.634C690.361 206.052 682.102 193.099 670.746 177.186C659.906 162.383 647.001 152.021 630.483 146.1C622.224 143.139 614.997 140.918 608.286 140.918C599.511 140.918 592.284 144.619 584.541 153.501C572.153 167.194 559.248 179.036 545.827 190.138C533.438 200.13 519.501 209.752 498.853 221.595C481.303 231.587 469.43 241.579 461.171 253.051C459.622 256.382 457.042 259.712 454.977 263.413C451.88 267.854 448.782 272.665 445.169 277.476C432.264 294.5 415.746 305.232 394.582 310.413C388.388 311.893 381.677 313.003 374.967 314.484C365.675 316.334 356.384 318.554 347.092 321.145C316.637 329.287 297.538 342.609 288.246 362.223C282.052 375.176 280.503 386.278 283.084 397.01C285.665 406.632 291.343 415.884 301.151 424.026C320.25 440.679 336.252 456.962 350.19 473.986C355.351 479.907 359.481 484.718 364.127 488.789C373.934 496.93 384.258 501.001 396.647 501.001H398.195C415.746 500.631 431.748 495.08 448.266 483.608C461.171 475.096 468.914 463.624 476.657 452.522L477.173 451.781C488.529 435.498 502.467 421.805 518.985 411.073C535.503 400.341 552.021 389.609 568.539 378.877C577.831 372.955 587.122 367.034 596.414 360.743C615.513 348.53 634.612 342.609 655.26 342.609C656.808 342.609 658.357 342.609 659.906 342.609C674.359 343.349 684.167 346.31 691.91 352.971C697.072 357.412 701.201 362.223 705.331 368.144C707.395 371.475 709.46 374.436 711.525 377.396C718.235 388.129 725.978 398.861 734.754 408.853C744.561 419.955 754.885 427.356 766.758 432.537C777.082 436.978 787.405 439.199 797.213 439.199C803.924 439.199 810.118 438.089 816.828 436.238C823.539 434.388 829.217 432.167 834.379 429.947C837.992 428.467 841.089 426.986 844.703 425.506C852.962 421.805 861.737 417.735 871.029 414.404C884.45 409.593 897.871 407.372 911.808 407.372C917.486 407.372 923.681 407.742 929.875 408.853C956.201 412.553 974.784 426.986 979.429 447.34C981.494 454.742 981.494 463.254 979.429 473.246C976.848 490.269 961.879 502.482 940.199 506.182C927.81 508.033 915.421 508.403 903.033 508.773C897.355 508.773 891.677 509.143 886.515 509.513C883.417 509.513 880.32 509.513 877.223 509.513C872.577 509.513 867.415 509.513 862.253 510.253C839.541 512.474 822.507 519.875 810.634 532.088C806.505 536.529 802.891 541.34 799.278 547.631C798.245 549.111 797.213 550.221 795.664 550.961H741.464C740.948 550.221 740.432 549.851 740.432 549.481C740.432 548.001 739.916 546.521 739.916 545.04C739.916 543.56 739.399 542.08 739.399 540.229C739.399 529.127 739.916 515.804 743.529 502.852C745.594 494.71 743.529 486.939 737.335 479.167C731.656 471.395 725.978 462.884 720.3 452.151C718.235 448.451 716.171 444.38 714.106 440.679C708.428 429.947 702.233 418.845 695.007 408.483C687.78 398.12 681.07 390.719 673.327 384.798C664.035 377.766 653.195 374.066 640.806 374.066C640.29 374.066 639.258 374.066 638.742 374.066C627.902 374.436 617.578 377.026 607.254 381.837C592.8 388.499 579.379 396.27 565.958 403.672L557.183 408.483C544.278 415.514 532.406 424.026 521.566 433.278C509.177 444.01 501.434 456.962 494.724 469.175C483.884 488.419 468.914 505.812 447.75 522.836C439.491 529.497 430.716 537.639 427.102 548.741C426.586 550.221 426.07 550.961 424.521 551.702H362.578C361.546 550.961 360.513 550.221 359.997 549.111C355.351 539.859 347.092 532.088 334.704 525.426L329.542 522.466C318.702 516.544 307.345 510.253 297.538 503.222C282.568 492.49 269.147 480.647 256.242 466.584C244.886 454.002 231.981 444.38 217.012 436.238C210.301 432.537 203.591 428.097 195.848 422.175C183.459 412.923 171.587 402.561 160.23 392.569C156.617 389.239 153.004 386.278 149.39 382.947C139.066 373.696 131.323 365.554 125.645 357.042C112.224 335.948 109.127 313.373 107.579 294.129C107.062 281.177 109.127 267.484 114.805 251.201C118.419 240.839 121.516 229.366 121 217.524C119.967 199.76 113.773 183.477 101.9 169.044C90.028 155.351 71.9612 148.32 48.7325 148.32C47.7001 148.32 46.6677 148.32 45.1191 148.32C30.1495 148.69 15.1799 151.651 0.210312 157.572C-12.1783 162.013 -23.5346 167.934 -36.4394 174.965C-62.2491 189.398 -91.6721 198.65 -125.741 203.091C-126.257 203.091 -126.773 203.091 -127.289 203.461C-128.322 203.461 -129.354 203.831 -129.87 203.831C-130.387 203.831 -130.903 203.831 -131.419 203.461V164.973C-130.387 164.603 -129.87 164.233 -129.354 164.233C-126.257 164.233 -123.676 163.863 -121.611 163.863C-119.547 163.863 -117.482 163.493 -115.933 163.493C-104.577 163.123 -93.7369 162.013 -83.9292 159.792C-71.0244 157.202 -58.6357 152.761 -46.7633 148.69C-42.6338 147.21 -39.0204 146.1 -35.407 144.619C-8.04879 135.367 17.7609 130.926 43.5706 130.926C50.7973 130.926 58.024 131.297 65.2507 132.037C87.9632 134.257 105.514 142.769 117.386 158.312C127.71 170.895 134.937 186.068 140.615 205.682C144.228 217.524 144.745 228.256 142.68 238.248C141.647 245.28 139.583 251.941 137.518 258.602C136.485 261.193 135.969 263.413 134.937 266.004C129.775 281.917 128.742 296.35 131.323 310.783C137.002 340.389 156.617 362.963 190.17 377.026C198.945 380.727 207.204 382.577 214.431 382.577C225.787 382.577 235.595 378.136 244.886 369.625C251.597 363.704 256.758 357.042 261.92 350.751C263.985 348.53 266.05 345.94 267.599 343.719C281.536 327.436 301.151 314.854 325.412 306.342C335.736 303.011 346.06 300.051 355.868 297.09C362.062 295.24 367.74 293.759 373.934 291.909C402.325 283.027 417.811 268.594 422.457 247.13C424.521 237.138 425.554 226.776 425.038 216.414C425.038 212.713 425.554 208.642 427.102 204.941C429.683 197.54 435.878 193.469 445.685 192.359C449.815 191.619 454.461 191.619 458.59 191.619H460.655H462.72H464.268C481.303 191.619 497.305 186.068 508.661 176.446C521.05 165.713 526.728 151.651 523.63 137.588C520.017 120.564 511.242 105.021 502.983 91.3284C501.434 88.7379 499.886 86.1474 498.337 83.5569C493.175 74.6751 487.497 65.7933 483.884 56.1713C478.206 42.4785 479.754 31.7464 489.046 22.1244C494.207 16.5733 500.918 12.1324 507.112 8.06158C508.661 6.95135 510.726 5.84113 512.274 4.73091C516.404 2.51046 520.017 -0.0800691 524.663 -1.19029ZM524.663 -2.67059C516.92 -1.19029 512.274 3.99076 506.596 7.32143C499.886 11.3923 493.175 15.8331 488.013 21.3843C477.689 32.4865 477.689 44.3289 482.851 56.5414C488.013 68.7539 495.24 79.8561 501.95 91.6985C510.209 106.501 518.985 121.675 522.082 137.958C527.76 165.343 500.402 190.138 464.784 190.138C464.268 190.138 463.752 190.138 463.236 190.138C461.687 190.138 460.139 190.138 458.59 190.138C453.944 190.138 449.815 190.138 445.685 190.879C434.845 192.359 428.651 196.8 425.554 204.571C424.005 208.272 423.489 212.343 423.489 216.414C423.489 226.776 422.973 236.768 420.908 247.13C416.262 268.964 399.744 282.657 373.418 290.799C356.9 295.61 340.382 299.681 324.896 305.232C300.635 313.373 281.02 325.956 266.05 342.979C258.823 351.491 251.597 360.743 243.337 368.885C234.562 377.396 225.271 381.467 214.947 381.467C207.72 381.467 199.977 379.617 191.718 376.286C158.166 361.853 139.066 339.649 133.388 310.783C130.807 295.61 132.356 281.177 137.002 266.374C140.099 257.122 143.196 247.87 145.261 238.618C147.325 227.516 146.293 216.414 143.196 205.682C138.034 188.658 131.84 172.375 119.967 157.572C107.579 142.399 89.5118 133.147 66.2831 130.926C58.5402 130.186 51.3135 129.816 44.0868 129.816C16.7285 129.816 -10.1136 134.997 -35.9232 143.509C-51.9252 148.69 -67.411 154.981 -84.4454 158.312C-94.7693 160.532 -105.609 161.643 -115.933 162.013C-120.579 162.013 -124.709 162.753 -129.354 162.753C-129.354 162.753 -129.354 162.753 -129.87 162.753C-131.419 162.753 -132.968 163.493 -134 164.233C-134 177.556 -134 190.879 -134 204.201C-132.968 204.941 -131.419 205.311 -130.387 205.311C-128.838 205.311 -127.289 204.941 -125.741 204.571C-92.7045 200.13 -62.2491 191.249 -34.8908 176.076C-23.5346 169.784 -11.6621 163.493 1.24269 158.682C15.1799 153.501 30.1495 149.8 45.6353 149.43C46.6677 149.43 47.7001 149.43 49.2487 149.43C70.4126 149.43 87.9632 155.351 100.352 169.784C112.224 184.217 118.419 200.501 118.935 217.524C119.451 228.996 116.354 239.728 112.741 250.461C107.579 264.894 104.481 279.326 105.514 294.129C107.062 315.964 110.676 337.428 124.097 357.042C130.291 366.664 139.066 375.176 147.842 383.318C163.327 396.64 177.781 410.333 194.299 422.545C201.01 427.727 208.236 432.537 215.979 436.608C231.465 444.75 243.854 454.742 254.694 466.584C267.082 479.907 280.503 492.12 296.505 503.592C307.862 511.734 320.766 518.765 333.671 525.796C344.511 531.718 353.287 539.119 358.449 548.741C359.481 550.221 361.03 551.332 362.578 552.442C383.742 552.442 404.906 552.442 426.07 552.442C428.135 551.332 429.167 550.221 429.683 548.371C433.297 538.379 441.04 530.237 449.815 523.206C469.43 507.293 485.948 489.529 497.305 469.175C504.531 456.592 512.274 444.01 524.147 433.648C534.471 424.396 546.343 416.254 559.248 409.223C575.766 399.971 591.768 390.719 609.319 382.577C618.61 378.136 628.934 375.546 639.774 375.176C640.29 375.176 641.323 375.176 641.839 375.176C653.711 375.176 664.551 378.877 672.81 385.538C681.586 392.199 688.296 400.341 694.491 408.853C704.298 422.916 711.525 437.719 719.784 452.522C724.946 461.773 730.624 471.025 737.335 479.907C743.013 486.938 745.078 494.34 743.013 502.852C739.916 515.434 739.399 528.017 738.883 540.599C738.883 543.93 739.916 546.891 739.916 549.851C739.916 551.332 740.948 552.072 741.98 552.812C760.563 552.812 779.146 552.812 797.729 552.812C800.31 552.072 801.343 550.591 802.375 548.741C805.472 543.56 809.086 538.009 813.731 533.568C826.12 520.615 843.671 514.324 863.802 512.104C871.545 511.363 879.804 511.734 888.063 511.363C906.13 510.253 924.197 510.993 942.263 508.033C964.46 504.332 980.462 492.12 983.043 473.986C984.591 465.104 985.108 456.222 983.043 447.34C977.881 426.616 959.298 411.443 931.94 407.372C925.745 406.262 919.551 405.892 913.873 405.892C899.419 405.892 885.998 408.483 872.577 413.294C859.672 417.734 848.316 423.656 835.928 428.837C830.25 431.427 824.571 433.278 818.377 435.128C812.183 436.978 805.988 438.089 799.794 438.089C789.47 438.089 780.179 435.868 770.371 431.427C757.466 425.876 747.658 417.734 738.883 408.483C727.527 395.53 718.752 381.467 709.46 367.774C705.847 362.223 701.201 357.042 695.523 352.231C686.231 344.46 674.875 341.869 661.97 341.499C660.422 341.499 658.873 341.499 656.808 341.499C633.58 341.499 613.964 348.901 596.414 360.003C570.604 376.656 544.794 393.31 518.985 409.963C501.434 421.435 487.497 435.498 476.657 451.041C468.914 462.514 460.655 473.986 448.266 482.498C434.329 492.12 418.843 499.151 399.744 499.521C399.228 499.521 398.712 499.521 398.195 499.521C385.807 499.521 375.483 495.08 367.224 488.049C360.513 483.238 356.384 478.427 352.254 473.246C337.801 455.482 320.766 438.829 302.7 423.286C293.924 415.514 287.73 407.002 285.149 397.01C282.568 385.168 285.149 374.066 290.311 362.963C300.635 341.869 321.283 330.027 347.609 322.625C363.611 318.184 379.613 315.594 395.615 311.523C418.843 305.602 435.361 293.759 447.234 277.846C453.428 270.075 458.074 261.563 463.752 253.421C472.527 240.839 485.948 231.217 500.918 222.705C517.436 213.083 533.954 202.721 547.892 190.879C561.829 179.406 574.734 166.824 586.606 153.871C594.349 145.359 601.06 142.029 608.802 142.029C614.997 142.029 621.707 143.879 629.966 147.21C648.033 153.871 659.906 164.603 669.197 177.926C679.005 191.249 687.78 204.571 695.007 219.004C701.201 231.587 704.814 244.169 705.847 257.492C706.879 269.334 706.879 281.177 707.912 293.019C708.428 299.311 709.46 305.602 712.041 311.893C716.171 324.106 728.043 330.397 743.529 331.877C750.756 332.617 758.499 333.357 765.725 333.357C781.727 333.357 797.729 330.767 812.183 324.476C828.701 317.074 841.09 307.082 851.413 294.87C865.351 277.846 873.093 258.972 875.674 238.988C877.223 226.776 877.739 214.563 883.934 202.721C888.579 193.099 894.774 184.587 907.162 179.406C911.292 177.926 914.905 176.446 919.551 175.706C921.099 175.335 922.648 175.335 924.197 175.335C931.94 175.335 937.618 178.296 940.715 184.217C944.844 191.619 946.393 199.76 948.458 207.532C952.071 223.445 956.717 238.988 967.041 253.051C974.784 263.783 983.559 273.775 994.915 282.287C1007.82 292.649 1022.27 301.531 1036.21 310.783C1050.15 320.035 1062.54 330.767 1074.41 341.499C1088.86 355.192 1104.35 368.515 1120.87 380.357C1130.16 387.018 1139.97 393.31 1149.77 399.601C1151.32 400.341 1152.87 402.191 1154.94 402.191C1155.45 402.191 1155.97 402.191 1157 401.821C1157 378.136 1157 354.452 1157 331.137C1152.35 325.216 1145.64 321.145 1138.42 317.444C1124.48 310.043 1109.51 304.122 1094.54 298.57C1074.93 291.539 1055.31 285.248 1037.24 276.366C1012.47 264.523 993.883 248.98 985.624 227.146C983.043 220.485 981.494 213.823 981.494 206.792C981.494 199.02 980.978 190.879 983.559 183.107C987.172 169.044 997.496 159.792 1014.53 154.241C1026.4 150.17 1039.82 147.95 1053.25 145.359C1072.34 141.289 1091.44 136.478 1109.51 129.446C1134.29 119.824 1147.19 104.281 1151.32 83.9269C1153.9 69.8641 1150.81 56.5414 1141.51 43.9588C1135.32 35.4471 1125 30.6361 1113.64 26.9354C1102.28 23.2346 1089.89 21.3843 1078.02 18.7938C1070.28 17.3135 1063.05 15.8332 1055.31 13.6127C1047.05 11.0222 1040.86 6.58128 1035.69 1.40023C1034.15 -0.0800691 1032.6 -1.56037 1030.53 -2.67059C1016.6 -2.67059 1002.66 -2.67059 989.237 -2.67059C986.656 -0.820219 986.656 1.77031 986.14 4.36083C985.108 10.282 983.559 15.8331 980.978 21.3843C978.397 26.5653 973.751 29.5259 967.041 30.6361C958.266 32.4865 950.006 32.8566 941.231 33.5967C927.81 34.707 914.389 35.4471 901.484 36.1873C897.355 36.5573 892.709 36.5573 888.579 36.5573C866.899 36.5573 846.768 33.2267 828.701 22.1244C819.409 16.2032 812.699 9.1718 807.021 1.03016C804.956 -0.0800688 803.924 -1.56037 801.343 -2.67059C786.889 -2.67059 772.436 -2.67059 757.982 -2.67059C755.918 -1.19029 756.434 0.290006 757.466 1.77031C761.596 9.91195 767.274 18.0536 775.017 24.715C795.665 41.3683 819.409 53.5808 848.832 59.1319C856.059 60.6122 863.286 60.9823 871.029 60.9823C872.577 60.9823 874.126 60.9823 875.674 60.9823C881.353 60.9823 887.547 60.9823 893.225 60.9823C899.936 60.9823 906.646 60.9823 913.357 61.7224C923.164 62.8327 932.456 64.313 939.166 70.6042C941.747 72.8247 943.812 75.4152 944.844 78.3758C951.039 98.3599 946.909 122.045 919.035 136.107C908.711 141.289 898.387 146.1 888.579 152.021C866.899 164.603 854.51 181.627 849.349 201.981C847.284 211.233 846.768 220.485 846.251 229.736C845.735 242.319 844.703 254.902 839.025 266.744C832.83 279.697 824.055 291.169 809.086 299.311C799.794 304.492 789.986 307.082 779.146 307.082C776.049 307.082 772.436 306.712 769.339 306.342C755.918 304.122 747.142 297.46 741.98 288.208C737.851 280.807 736.302 273.035 735.786 265.264C733.721 241.949 730.108 219.004 723.914 195.69C721.333 184.587 719.784 173.485 718.752 162.383C716.687 144.989 709.46 129.076 693.974 115.753C686.232 109.462 677.972 103.541 669.713 97.6197C658.873 89.108 651.647 79.486 647.517 68.0137C643.904 58.3918 641.323 48.3997 637.709 38.7778C632.547 25.8252 625.837 13.6127 619.643 0.660081C618.61 -0.820219 617.062 -1.93044 614.997 -2.67059C585.058 -2.67059 554.602 -2.67059 524.663 -2.67059Z" fill="#5200FF"/>
</svg>
