<svg width="1152" height="2419" viewBox="0 0 1152 2419" fill="none" xmlns="http://www.w3.org/2000/svg">
<path opacity="0.21" d="M608.663 6.44637H698.481C700.029 9.66955 700.545 12.8927 701.062 16.1159C702.61 29.0087 704.159 41.9014 705.707 54.7941C710.353 95.0839 715.515 138.597 719.128 180.498C721.193 206.284 723.258 232.069 725.323 256.243C726.871 273.971 727.904 290.087 729.452 307.814C733.582 360.997 740.808 402.898 752.165 439.965C755.262 449.634 758.359 459.304 761.456 470.585C766.618 486.701 771.78 502.817 776.426 518.933C790.363 572.115 798.106 636.579 800.687 718.77L801.203 736.498C802.235 778.399 803.784 821.912 806.365 863.813C812.043 958.897 816.173 1057.2 818.237 1165.18C818.754 1194.19 820.302 1231.26 824.432 1266.71C830.11 1311.84 839.918 1340.84 853.339 1348.9C856.952 1350.51 860.049 1352.13 863.663 1352.13C874.503 1352.13 884.826 1340.84 894.634 1316.67C908.571 1284.44 918.379 1236.09 925.606 1171.63C931.8 1116.83 932.316 1058.82 932.832 1008.86C933.349 970.179 933.865 929.889 935.93 889.599C940.575 802.573 953.48 730.051 974.128 676.869C981.871 655.918 990.646 638.19 998.905 620.463L1004.58 607.57C1039.68 531.825 1035.04 401.286 1031.43 349.716C1030.39 335.211 1027.81 323.93 1025.23 312.649C1018 283.64 1007.68 275.582 998.389 272.359C991.162 269.136 983.419 269.136 978.257 269.136C975.16 269.136 972.579 269.136 969.482 269.136C966.385 269.136 963.804 269.136 960.707 269.136C959.158 269.136 957.61 269.136 956.061 269.136C947.802 269.136 941.091 265.913 934.381 261.078C907.023 238.516 883.278 190.168 861.598 112.811C854.887 88.6376 849.209 56.4057 844.047 16.1159C843.015 9.66955 843.015 6.44637 843.531 4.83478H885.859C887.407 8.05796 888.44 12.8927 889.472 19.3391C896.183 59.6289 903.409 90.2492 911.668 112.811C928.187 156.324 947.802 177.275 972.579 177.275C976.709 177.275 981.355 177.275 986 175.664C998.905 172.44 1012.33 169.217 1025.75 164.382C1034.52 161.159 1043.3 157.936 1052.07 151.49C1059.82 145.043 1064.46 130.539 1067.56 106.365C1070.14 85.4144 1071.69 61.2405 1073.24 30.6203V25.7855C1073.24 17.7275 1073.75 11.2811 1075.3 6.44637H1115.05C1116.6 9.66955 1117.63 14.5043 1118.66 19.3391C1124.86 46.7362 1131.57 64.4637 1139.31 75.7448C1146.54 85.4144 1154.28 91.8608 1161.51 98.3071H1162.02C1164.6 99.9187 1166.67 101.53 1169.25 104.753C1178.54 112.811 1188.35 120.869 1197.64 133.762C1211.06 153.101 1219.32 174.052 1224.48 204.672C1233.77 256.243 1236.87 314.26 1234.29 373.889C1230.16 464.139 1216.74 528.602 1193.51 568.892C1173.89 602.735 1153.76 622.075 1137.76 636.579C1134.66 639.802 1131.57 641.414 1128.99 644.637C1118.66 652.695 1108.34 662.364 1098.53 676.869C1080.98 701.043 1070.14 744.556 1066.53 805.796C1064.46 834.805 1064.46 865.425 1064.46 894.434V910.55C1064.46 937.947 1066.01 966.955 1068.59 1000.8C1076.33 1089.44 1093.37 1161.96 1120.73 1219.98C1135.7 1250.6 1151.18 1274.77 1167.18 1298.94C1170.8 1305.39 1174.93 1310.22 1178.54 1316.67C1192.99 1339.23 1207.96 1365.02 1222.42 1397.25C1229.13 1411.75 1235.84 1429.48 1239.97 1453.66V1755.02C1239.45 1755.02 1238.42 1751.8 1237.9 1750.19C1237.39 1748.58 1236.87 1746.97 1236.35 1746.97C1225 1714.73 1215.71 1688.95 1207.45 1664.77C1191.45 1616.43 1177.51 1561.63 1160.99 1497.17C1146.54 1440.76 1134.66 1398.86 1122.28 1361.8C1119.18 1353.74 1116.08 1344.07 1113.5 1336.01C1102.66 1305.39 1091.82 1271.55 1081.5 1237.7C1071.17 1202.25 1061.88 1160.35 1054.14 1110.39C1043.81 1045.92 1039.17 975.013 1035.55 913.773L1034.01 905.715C1032.46 873.483 1030.39 841.251 1026.78 810.631C1023.17 783.234 1016.46 767.118 1008.2 767.118C1006.65 767.118 1004.58 767.118 1003.03 768.73C998.905 771.953 994.776 776.787 990.13 784.845C976.193 809.019 969.998 850.921 965.869 889.599C960.707 934.724 959.675 981.46 958.126 1028.2L957.61 1049.15C955.545 1136.17 947.286 1218.36 933.865 1290.89C923.541 1345.68 910.636 1389.19 895.667 1418.2C882.245 1443.99 867.276 1456.88 850.242 1456.88C842.499 1456.88 835.788 1455.27 827.529 1450.43C812.043 1442.38 801.719 1414.98 797.074 1368.24C794.493 1340.84 793.976 1311.84 793.46 1287.66C792.944 1263.49 792.944 1239.31 792.428 1215.14C792.428 1187.74 791.912 1160.35 791.395 1132.95C790.363 1074.93 786.75 1018.53 780.555 963.732C774.361 908.938 766.102 852.532 754.746 783.234C743.906 718.77 731.001 673.646 714.483 647.86C706.224 634.967 698.997 625.298 692.286 625.298C683.511 625.298 676.284 641.414 668.541 680.092C656.153 739.721 643.248 791.292 629.827 839.64C617.438 883.153 603.501 925.054 582.853 976.625C565.303 1020.14 553.43 1063.65 545.171 1113.61C543.622 1128.11 541.042 1142.62 538.977 1158.73C535.88 1178.07 532.782 1199.02 529.169 1219.98C516.264 1294.11 499.746 1340.84 478.582 1363.41C472.388 1369.85 465.677 1374.69 458.967 1381.13C449.675 1389.19 440.384 1398.86 431.092 1410.14C400.637 1445.6 381.538 1503.62 372.246 1589.03C366.052 1645.44 364.503 1693.78 367.084 1740.52C369.665 1782.42 375.343 1822.71 385.151 1858.17C404.25 1930.69 420.252 2001.6 434.19 2075.73C439.351 2101.52 443.481 2122.47 448.127 2140.19C457.934 2175.65 468.258 2193.38 480.647 2193.38H482.195C499.746 2191.77 515.748 2167.59 532.266 2117.63C545.171 2080.57 552.914 2030.61 560.657 1982.26L561.173 1979.04C572.529 1908.13 586.467 1848.5 602.985 1801.76C619.503 1755.02 636.021 1708.29 652.539 1661.55C661.831 1635.77 671.122 1609.98 680.414 1582.58C699.513 1529.4 718.612 1503.62 739.26 1503.62C740.808 1503.62 742.357 1503.62 743.906 1503.62C758.359 1506.84 768.167 1519.73 775.91 1548.74C781.072 1568.08 785.201 1589.03 789.331 1614.82C791.395 1629.32 793.46 1642.21 795.525 1655.11C802.235 1701.84 809.978 1748.58 818.754 1792.09C828.561 1840.44 838.885 1872.67 850.758 1895.23C861.082 1914.57 871.405 1924.24 881.213 1924.24C887.924 1924.24 894.118 1919.41 900.828 1911.35C907.539 1903.29 913.217 1893.62 918.379 1883.95C921.992 1877.5 925.089 1871.06 928.703 1864.61C936.962 1848.5 945.737 1830.77 955.029 1816.26C968.45 1795.31 981.871 1785.64 995.808 1785.64C1001.49 1785.64 1007.68 1787.26 1013.87 1792.09C1040.2 1808.21 1058.78 1871.06 1063.43 1959.7C1065.49 1991.93 1065.49 2028.99 1063.43 2072.51C1060.85 2146.64 1045.88 2199.82 1024.2 2215.94C1011.81 2224 999.421 2225.61 987.033 2227.22C981.355 2227.22 975.677 2228.83 970.515 2230.44C967.417 2230.44 964.32 2230.44 961.223 2230.44C956.577 2230.44 951.415 2230.44 946.253 2233.67C923.541 2243.34 906.507 2275.57 894.634 2328.75C890.505 2348.09 886.891 2369.04 883.278 2396.44C882.245 2402.88 881.213 2407.72 879.664 2410.94H825.464C824.948 2407.72 824.432 2406.11 824.432 2404.5C824.432 2398.05 823.916 2391.6 823.916 2385.16C823.916 2378.71 823.399 2372.26 823.399 2364.21C823.399 2315.86 823.916 2257.84 827.529 2201.43C829.594 2165.98 827.529 2132.14 821.335 2098.29C815.656 2064.45 809.978 2027.38 804.3 1980.65C802.235 1964.53 800.171 1946.8 798.106 1930.69C792.428 1883.95 786.233 1835.6 779.007 1790.48C771.78 1745.35 765.07 1713.12 757.327 1687.34C748.035 1656.72 737.195 1640.6 724.806 1640.6C724.29 1640.6 723.258 1640.6 722.742 1640.6C711.902 1642.21 701.578 1653.49 691.254 1674.44C676.8 1703.45 663.379 1737.3 649.958 1769.53L641.183 1790.48C628.278 1821.1 616.406 1858.17 605.566 1898.46C593.177 1945.19 585.434 2001.6 578.724 2054.78C567.884 2138.58 552.914 2214.33 531.75 2288.46C523.491 2317.47 514.716 2352.92 511.102 2401.27C510.586 2407.72 510.07 2410.94 508.521 2414.17H446.578C445.546 2410.94 444.513 2407.72 443.997 2402.88C439.351 2362.59 431.092 2328.75 418.704 2299.74L413.542 2286.85C402.702 2261.06 391.345 2233.67 381.538 2203.05C366.568 2156.31 353.147 2104.74 340.242 2043.5C328.886 1988.7 315.981 1946.8 301.012 1911.35C294.301 1895.23 287.591 1875.89 279.848 1850.11C267.459 1809.82 255.587 1764.69 244.23 1721.18C240.617 1706.68 237.004 1693.78 233.39 1679.28C223.066 1638.99 215.323 1603.53 209.645 1566.47C196.224 1474.61 193.127 1376.3 191.579 1292.5C191.062 1236.09 193.127 1176.46 198.805 1105.55C202.419 1060.43 205.516 1010.47 205 958.897C203.967 881.541 197.773 810.631 185.9 747.779C174.028 688.15 155.961 657.53 132.732 657.53C131.7 657.53 130.668 657.53 129.119 657.53C114.15 659.141 99.1799 672.034 84.2103 697.819C71.8217 717.159 60.4654 742.944 47.5606 773.564C21.7509 836.416 -7.67213 876.706 -41.7409 896.045C-42.2571 896.045 -42.7733 896.045 -43.2895 897.657C-44.3219 897.657 -45.3543 899.268 -45.8705 899.268C-46.3866 899.268 -46.9028 899.269 -47.419 897.657V730.051C-46.3866 728.44 -45.8705 726.828 -45.3543 726.828C-42.2571 726.828 -39.6761 725.217 -37.6114 725.217C-35.5466 725.217 -33.4818 723.605 -31.9332 723.605C-20.577 721.993 -9.73691 717.159 0.0707703 707.489C12.9756 696.208 25.3643 676.869 37.2367 659.141C41.3662 652.695 44.9796 647.86 48.593 641.414C75.9512 601.124 101.761 581.785 127.571 581.785C134.797 581.785 142.024 583.396 149.251 586.62C171.963 596.289 189.514 633.356 201.386 701.043C211.71 755.837 218.937 821.912 224.615 907.326C228.228 958.897 228.745 1005.63 226.68 1049.15C225.647 1079.77 223.583 1108.78 221.518 1137.78C220.485 1149.07 219.969 1158.73 218.937 1170.02C213.775 1239.31 212.742 1302.17 215.323 1365.02C221.002 1493.95 240.617 1592.25 274.17 1653.49C282.945 1669.61 291.204 1677.67 298.431 1677.67C309.787 1677.67 319.595 1658.33 328.886 1621.26C335.597 1595.48 340.758 1566.47 345.92 1539.07C347.985 1529.4 350.05 1518.12 351.599 1508.45C365.536 1437.54 385.151 1382.75 409.412 1345.68C419.736 1331.18 430.06 1318.28 439.868 1305.39C446.062 1297.33 451.74 1290.89 457.934 1282.83C486.325 1244.15 501.811 1181.3 506.457 1087.82C508.521 1044.31 509.554 999.187 509.038 954.063C509.038 937.947 509.554 920.219 511.102 904.103C513.683 871.871 519.878 854.144 529.685 849.309C533.815 846.086 538.461 846.086 542.59 846.086H544.655H546.72H548.268C565.303 846.086 581.305 821.912 592.661 780.011C605.05 733.274 610.728 672.034 607.63 610.793C604.017 536.66 595.242 468.973 586.983 409.344C585.434 398.063 583.886 386.782 582.337 375.501C577.175 336.823 571.497 298.145 567.884 256.243C562.206 196.614 563.754 149.878 573.046 107.977C578.207 83.8028 584.918 64.4637 591.112 46.7362C592.661 41.9014 594.726 37.0666 596.274 32.2318C600.404 22.5623 604.017 11.2811 608.663 6.44637ZM608.663 0C600.92 6.44637 596.274 29.0087 590.596 43.513C583.886 61.2405 577.175 80.5796 572.013 104.753C561.689 153.101 561.689 204.672 566.851 257.855C572.013 311.037 579.24 359.385 585.95 410.956C594.209 475.42 602.985 541.495 606.082 612.405C611.76 731.663 584.402 839.64 548.784 839.64C548.268 839.64 547.752 839.64 547.236 839.64C545.687 839.64 544.139 839.64 542.59 839.64C537.944 839.64 533.815 839.64 529.685 842.863C518.845 849.309 512.651 868.648 509.554 902.492C508.005 918.608 507.489 936.335 507.489 954.063C507.489 999.187 506.973 1042.7 504.908 1087.82C500.262 1182.91 483.744 1242.54 457.418 1277.99C440.9 1298.94 424.382 1316.67 408.896 1340.84C384.635 1376.3 365.02 1431.09 350.05 1505.23C342.823 1542.29 335.597 1582.58 327.337 1618.04C318.562 1655.11 309.271 1672.83 298.947 1672.83C291.72 1672.83 283.977 1664.77 275.718 1650.27C242.166 1587.42 223.066 1490.72 217.388 1365.02C214.807 1298.94 216.356 1236.09 221.002 1171.63C224.099 1131.34 227.196 1091.05 229.261 1050.76C231.325 1002.41 230.293 954.063 227.196 907.326C222.034 833.193 215.84 762.283 203.967 697.819C191.579 631.744 173.512 591.454 150.283 581.785C142.54 578.562 135.313 576.95 128.087 576.95C100.729 576.95 73.8864 599.512 48.0768 636.579C32.0748 659.141 16.589 686.538 -0.445423 701.043C-10.7693 710.712 -21.6094 715.547 -31.9332 717.159C-36.579 717.159 -40.7085 720.382 -45.3543 720.382C-45.3543 720.382 -45.3543 720.382 -45.8705 720.382C-47.419 720.382 -48.9676 723.605 -50 726.828C-50 784.845 -50 842.863 -50 900.88C-48.9676 904.103 -47.419 905.715 -46.3866 905.715C-44.8381 905.715 -43.2895 904.103 -41.7409 902.492C-8.70452 883.153 21.7509 844.474 49.1092 778.399C60.4654 751.002 72.3379 723.605 85.2427 702.654C99.1799 680.092 114.15 663.976 129.635 662.364C130.668 662.364 131.7 662.364 133.249 662.364C154.413 662.364 171.963 688.15 184.352 751.002C196.224 813.854 202.419 884.764 202.935 958.897C203.451 1008.86 200.354 1055.59 196.741 1102.33C191.579 1165.18 188.481 1228.03 189.514 1292.5C191.062 1387.58 194.676 1481.05 208.097 1566.47C214.291 1608.37 223.066 1645.44 231.842 1680.89C247.327 1738.91 261.781 1798.54 278.299 1851.72C285.01 1874.28 292.236 1895.23 299.979 1912.96C315.465 1948.41 327.854 1991.93 338.694 2043.5C351.082 2101.52 364.503 2154.7 380.505 2204.66C391.862 2240.11 404.766 2270.73 417.671 2301.35C428.511 2327.14 437.287 2359.37 442.449 2401.27C443.481 2407.72 445.03 2412.55 446.578 2417.39C467.742 2417.39 488.906 2417.39 510.07 2417.39C512.135 2412.55 513.167 2407.72 513.683 2399.66C517.297 2356.15 525.04 2320.69 533.815 2290.07C553.43 2220.77 569.948 2143.42 581.305 2054.78C588.531 1999.99 596.274 1945.19 608.147 1900.07C618.471 1859.78 630.343 1824.32 643.248 1793.7C659.766 1753.41 675.768 1713.12 693.319 1677.67C702.61 1658.33 712.934 1647.05 723.774 1645.44C724.29 1645.44 725.323 1645.44 725.839 1645.44C737.711 1645.44 748.551 1661.55 756.81 1690.56C765.586 1719.57 772.296 1755.02 778.491 1792.09C788.298 1853.33 795.525 1917.79 803.784 1982.26C808.946 2022.55 814.624 2062.84 821.335 2101.52C827.013 2132.14 829.078 2164.37 827.013 2201.43C823.916 2256.23 823.399 2311.02 822.883 2365.82C822.883 2380.32 823.916 2393.21 823.916 2406.11C823.916 2412.55 824.948 2415.78 825.98 2419C844.563 2419 863.146 2419 881.729 2419C884.31 2415.78 885.343 2409.33 886.375 2401.27C889.472 2378.71 893.086 2354.54 897.731 2335.2C910.12 2278.79 927.671 2251.39 947.802 2241.72C955.545 2238.5 963.804 2240.11 972.063 2238.5C990.13 2233.67 1008.2 2236.89 1026.26 2224C1048.46 2207.88 1064.46 2154.7 1067.04 2075.73C1068.59 2037.05 1069.11 1998.37 1067.04 1959.7C1061.88 1869.45 1043.3 1803.37 1015.94 1785.64C1009.75 1780.81 1003.55 1779.2 997.873 1779.2C983.419 1779.2 969.998 1790.48 956.577 1811.43C943.672 1830.77 932.316 1856.55 919.928 1879.12C914.25 1890.4 908.571 1898.46 902.377 1906.51C896.183 1914.57 889.988 1919.41 883.794 1919.41C873.47 1919.41 864.179 1909.74 854.371 1890.4C841.466 1866.22 831.658 1830.77 822.883 1790.48C811.527 1734.07 802.752 1672.83 793.46 1613.2C789.847 1589.03 785.201 1566.47 779.523 1545.52C770.231 1511.67 758.875 1500.39 745.97 1498.78C744.422 1498.78 742.873 1498.78 740.808 1498.78C717.58 1498.78 697.964 1531.01 680.414 1579.36C654.604 1651.88 628.794 1724.4 602.985 1796.93C585.434 1846.88 571.497 1908.13 560.657 1975.81C552.914 2025.77 544.655 2075.73 532.266 2112.8C518.329 2154.7 502.843 2185.32 483.744 2186.93C483.228 2186.93 482.712 2186.93 482.195 2186.93C469.807 2186.93 459.483 2167.59 451.224 2136.97C444.513 2116.02 440.384 2095.07 436.254 2072.51C421.801 1995.15 404.766 1922.63 386.7 1854.94C377.924 1821.1 371.73 1784.03 369.149 1740.52C366.568 1688.95 369.149 1640.6 374.311 1592.25C384.635 1500.39 405.283 1448.82 431.609 1416.59C447.611 1397.25 463.613 1385.97 479.615 1368.24C502.843 1342.46 519.361 1290.89 531.234 1221.59C537.428 1187.74 542.074 1150.68 547.752 1115.22C556.527 1060.43 569.948 1018.53 584.918 981.46C601.436 939.558 617.954 894.434 631.892 842.863C645.829 792.903 658.734 738.109 670.606 681.704C678.349 644.637 685.06 630.133 692.802 630.133C698.997 630.133 705.707 638.191 713.966 652.695C732.033 681.704 743.906 728.44 753.197 786.457C763.005 844.474 771.78 902.492 779.007 965.344C785.201 1020.14 788.814 1074.93 789.847 1132.95C790.879 1184.52 790.879 1236.09 791.912 1287.66C792.428 1315.06 793.46 1342.46 796.041 1369.85C800.171 1423.04 812.043 1450.43 827.529 1456.88C834.756 1460.1 842.499 1463.33 849.725 1463.33C865.727 1463.33 881.729 1452.04 896.183 1424.65C912.701 1392.42 925.09 1348.9 935.413 1295.72C949.351 1221.59 957.093 1139.4 959.674 1052.37C961.223 999.187 961.739 946.005 967.934 894.434C972.579 852.532 978.774 815.466 991.162 792.903C995.292 786.457 998.905 780.011 1003.55 776.787C1005.1 775.176 1006.65 775.176 1008.2 775.176C1015.94 775.176 1021.62 788.069 1024.71 813.854C1028.84 846.086 1030.39 881.541 1032.46 915.384C1036.07 984.683 1040.72 1052.37 1051.04 1113.61C1058.78 1160.35 1067.56 1203.86 1078.92 1240.93C1091.82 1286.05 1106.27 1324.73 1120.21 1365.02C1134.15 1405.31 1146.54 1452.04 1158.41 1498.78C1172.86 1558.41 1188.35 1616.43 1204.87 1668C1214.16 1697.01 1223.97 1724.4 1233.77 1751.8C1235.32 1755.02 1236.87 1763.08 1238.94 1763.08C1239.45 1763.08 1239.97 1763.08 1241 1761.47C1241 1658.33 1241 1555.19 1241 1453.66C1236.35 1427.87 1229.64 1410.14 1222.42 1394.03C1208.48 1361.8 1193.51 1336.01 1178.54 1311.84C1158.93 1281.22 1139.31 1253.82 1121.24 1215.14C1096.47 1163.57 1077.88 1095.88 1069.62 1000.8C1067.04 971.79 1065.49 942.781 1065.49 912.161C1065.49 878.318 1064.98 842.863 1067.56 809.019C1071.17 747.779 1081.5 707.489 1098.53 683.315C1110.4 665.588 1123.82 655.918 1137.25 644.637C1156.34 626.909 1175.44 605.959 1193.51 575.338C1218.29 533.437 1231.19 465.75 1235.32 377.113C1237.9 315.872 1234.81 257.855 1225.51 203.061C1219.32 165.994 1209 145.043 1197.64 128.927C1186.28 112.811 1173.89 104.754 1162.02 93.4724C1154.28 87.026 1147.05 80.5796 1139.31 70.9101C1131.05 59.6289 1124.86 40.2898 1119.69 17.7275C1118.15 11.2811 1116.6 4.83478 1114.53 0C1100.6 0 1086.66 0 1073.24 0C1070.66 8.05796 1070.66 19.3391 1070.14 30.6203C1069.11 56.4057 1067.56 80.5796 1064.98 104.753C1062.4 127.316 1057.75 140.209 1051.04 145.043C1042.27 153.101 1034.01 154.713 1025.23 157.936C1011.81 162.771 998.389 165.994 985.484 169.217C981.355 170.829 976.709 170.829 972.579 170.829C950.899 170.829 930.768 156.324 912.701 107.977C903.409 82.1912 896.699 51.571 891.021 16.1159C888.956 11.2811 887.924 4.83478 885.343 0C870.889 0 856.436 0 841.982 0C839.918 6.44637 840.434 12.8927 841.466 19.3391C845.596 54.7941 851.274 90.2492 859.017 119.258C879.665 191.779 903.409 244.962 932.832 269.136C940.059 275.582 947.286 277.194 955.029 277.194C956.577 277.194 958.126 277.194 959.674 277.194C965.353 277.194 971.547 277.194 977.225 277.194C983.936 277.194 990.646 277.194 997.357 280.417C1007.16 285.252 1016.46 291.698 1023.17 319.095C1025.75 328.765 1027.81 340.046 1028.84 352.939C1035.04 439.965 1030.91 543.107 1003.03 604.347C992.711 626.909 982.387 647.86 972.579 673.646C950.899 728.44 938.51 802.573 933.349 891.211C931.284 931.5 930.768 971.79 930.251 1012.08C929.735 1066.87 928.703 1121.67 923.025 1173.24C916.83 1229.64 908.055 1279.6 893.086 1315.06C883.794 1337.62 873.986 1348.9 863.146 1348.9C860.049 1348.9 856.436 1347.29 853.339 1345.68C839.918 1336.01 831.142 1307 825.98 1266.71C821.851 1234.48 820.302 1200.64 819.786 1166.79C817.721 1065.26 814.108 965.344 807.914 863.813C805.333 815.466 803.784 767.118 802.752 718.77C800.687 643.025 793.46 573.727 777.974 515.71C770.232 488.312 761.972 462.527 753.713 436.741C742.873 399.675 735.647 357.773 731.517 307.814C727.904 265.913 725.323 222.4 721.709 180.498C716.547 124.093 709.837 70.9101 703.643 14.5043C702.61 8.05796 701.062 3.22318 698.997 0C669.058 0 638.602 0 608.663 0Z" fill="#5200FF"/>
</svg>
